<?xml version="1.0" standalone="no"?><!DOCTYPE svg PUBLIC "-//W3C//DTD SVG 1.1//EN" "http://www.w3.org/Graphics/SVG/1.1/DTD/svg11.dtd"><svg t="1609055242785" class="icon" viewBox="0 0 1024 1024" version="1.1" xmlns="http://www.w3.org/2000/svg" p-id="1160" width="128" height="128" xmlns:xlink="http://www.w3.org/1999/xlink"><defs><style type="text/css"></style></defs><path d="M512 128.042667c-211.754667 0-384.042667 172.266667-384.042667 384 0 110.058667 46.677333 209.322667 121.130667 279.381333l38.954667-51.925333c-59.008-58.026667-96.085333-138.325333-96.085334-227.456 0-176.448 143.573333-320 320.042667-320 43.584 0 84.885333 9.344 122.752 25.258666l57.962667-43.52A380.032 380.032 0 0 0 512 128.042667z m288 21.333333a10.773333 10.773333 0 0 0-6.4 2.090667l-426.666667 320a10.666667 10.666667 0 0 0 6.4 19.2h102.250667l-131.136 131.114666A10.645333 10.645333 0 0 0 352 640h64l-179.2 238.933333a10.709333 10.709333 0 0 0 8.533333 17.066667 10.666667 10.666667 0 0 0 6.4-2.133333l426.666667-320a10.666667 10.666667 0 0 0-6.4-19.2h-102.250667l131.136-131.114667A10.645333 10.645333 0 0 0 693.333333 405.333333h-83.925333l198.762667-238.506666a10.624 10.624 0 1 0-8.170667-17.450667z m-6.954667 102.293333l-41.130666 49.322667c49.706667 56.384 80.128 130.176 80.128 211.050667 0 176.448-143.573333 320-320.042667 320-31.018667 0-60.906667-4.714667-89.258667-13.077334l-61.205333 45.866667A379.84 379.84 0 0 0 512 896.042667c211.754667 0 384.042667-172.266667 384.042667-384 0-100.629333-39.402667-191.850667-102.997334-260.373334z" p-id="1161"></path></svg>